<svg width="156" height="20" viewBox="0 0 156 20" fill="none" xmlns="http://www.w3.org/2000/svg">
<path d="M16.7503 14.8491C16.7503 14.9914 16.6248 15.117 16.4825 15.117H4.16106C4.01876 15.117 3.89321 14.9914 3.89321 14.8491V8.42057C4.06899 8.62146 4.26151 8.80561 4.47077 8.97302C5.66776 9.89378 6.87312 10.8313 8.03662 11.8023C8.66441 12.3296 9.44287 12.9741 10.3134 12.9741H10.3218H10.3301C11.2007 12.9741 11.9791 12.3296 12.6069 11.8023C13.7704 10.8313 14.9758 9.89378 16.1728 8.97302C16.382 8.80561 16.5746 8.62146 16.7503 8.42057V14.8491ZM16.7503 6.05171C16.7503 6.7632 16.064 7.69233 15.5199 8.11923C14.3982 8.99813 13.2766 9.88541 12.1633 10.7727C11.7197 11.1326 10.9161 11.9027 10.3301 11.9027H10.3218H10.3134C9.72747 11.9027 8.9239 11.1326 8.48026 10.7727C7.36698 9.88541 6.24533 8.99813 5.12367 8.11923C4.37033 7.52492 3.89321 6.69624 3.89321 5.742C3.89321 5.5997 4.01876 5.47414 4.16106 5.47414H16.4825C16.8006 5.47414 16.7503 5.84244 16.7503 6.05171ZM17.8218 5.742C17.8218 5.00539 17.2191 4.40271 16.4825 4.40271H4.16106C3.42446 4.40271 2.82178 5.00539 2.82178 5.742V14.8491C2.82178 15.5857 3.42446 16.1884 4.16106 16.1884H16.4825C17.2191 16.1884 17.8218 15.5857 17.8218 14.8491V5.742Z" fill="#3E9CDC"/>
<path d="M32.4603 8.4155V15H31.3033V8.4155H32.4603ZM32.7073 6.3485C32.7073 6.46117 32.6834 6.56733 32.6358 6.667C32.5924 6.76233 32.5318 6.849 32.4538 6.927C32.3801 7.00067 32.2913 7.05917 32.1873 7.1025C32.0876 7.14583 31.9814 7.1675 31.8688 7.1675C31.7561 7.1675 31.6499 7.14583 31.5503 7.1025C31.4549 7.05917 31.3704 7.00067 31.2968 6.927C31.2231 6.849 31.1646 6.76233 31.1213 6.667C31.0779 6.56733 31.0563 6.46117 31.0563 6.3485C31.0563 6.23583 31.0779 6.12967 31.1213 6.03C31.1646 5.926 31.2231 5.83717 31.2968 5.7635C31.3704 5.6855 31.4549 5.62483 31.5503 5.5815C31.6499 5.53817 31.7561 5.5165 31.8688 5.5165C31.9814 5.5165 32.0876 5.53817 32.1873 5.5815C32.2913 5.62483 32.3801 5.6855 32.4538 5.7635C32.5318 5.83717 32.5924 5.926 32.6358 6.03C32.6834 6.12967 32.7073 6.23583 32.7073 6.3485ZM34.3613 15V8.4155H35.0568C35.2215 8.4155 35.3233 8.49567 35.3623 8.656L35.4533 9.371C35.7393 9.05467 36.06 8.799 36.4153 8.604C36.7707 8.409 37.1802 8.3115 37.6438 8.3115C38.0035 8.3115 38.3198 8.37217 38.5928 8.4935C38.8702 8.6105 39.0998 8.7795 39.2818 9.0005C39.4682 9.21717 39.609 9.47933 39.7043 9.787C39.7997 10.0947 39.8473 10.4348 39.8473 10.8075V15H38.6838V10.8075C38.6838 10.3092 38.569 9.9235 38.3393 9.6505C38.114 9.37317 37.7695 9.2345 37.3058 9.2345C36.9592 9.2345 36.6363 9.31683 36.3373 9.4815C36.0427 9.64617 35.7718 9.86933 35.5248 10.151V15H34.3613ZM41.9378 15V9.4035L41.2098 9.319C41.1188 9.29733 41.043 9.26483 40.9823 9.2215C40.926 9.17383 40.8978 9.10667 40.8978 9.02V8.5455H41.9378V7.9085C41.9378 7.5315 41.9898 7.19783 42.0938 6.9075C42.2021 6.61283 42.3538 6.36583 42.5488 6.1665C42.7481 5.96283 42.9865 5.809 43.2638 5.705C43.5411 5.601 43.8531 5.549 44.1998 5.549C44.4945 5.549 44.7653 5.59233 45.0123 5.679L44.9863 6.2575C44.9776 6.3615 44.9191 6.41783 44.8108 6.4265C44.7068 6.43517 44.566 6.4395 44.3883 6.4395C44.189 6.4395 44.007 6.4655 43.8423 6.5175C43.682 6.5695 43.5433 6.654 43.4263 6.771C43.3093 6.888 43.2183 7.04183 43.1533 7.2325C43.0926 7.42317 43.0623 7.65933 43.0623 7.941V8.5455H44.9603V9.384H43.1013V15H41.9378ZM48.6388 8.3115C49.1198 8.3115 49.5531 8.39167 49.9388 8.552C50.3244 8.71233 50.6538 8.93983 50.9268 9.2345C51.1998 9.52917 51.4078 9.88667 51.5508 10.307C51.6981 10.723 51.7718 11.1888 51.7718 11.7045C51.7718 12.2245 51.6981 12.6925 51.5508 13.1085C51.4078 13.5245 51.1998 13.8798 50.9268 14.1745C50.6538 14.4692 50.3244 14.6967 49.9388 14.857C49.5531 15.013 49.1198 15.091 48.6388 15.091C48.1534 15.091 47.7158 15.013 47.3258 14.857C46.9401 14.6967 46.6108 14.4692 46.3378 14.1745C46.0648 13.8798 45.8546 13.5245 45.7073 13.1085C45.5643 12.6925 45.4928 12.2245 45.4928 11.7045C45.4928 11.1888 45.5643 10.723 45.7073 10.307C45.8546 9.88667 46.0648 9.52917 46.3378 9.2345C46.6108 8.93983 46.9401 8.71233 47.3258 8.552C47.7158 8.39167 48.1534 8.3115 48.6388 8.3115ZM48.6388 14.1875C49.2888 14.1875 49.7741 13.9708 50.0948 13.5375C50.4154 13.0998 50.5758 12.491 50.5758 11.711C50.5758 10.9267 50.4154 10.3157 50.0948 9.878C49.7741 9.44033 49.2888 9.2215 48.6388 9.2215C48.3094 9.2215 48.0213 9.27783 47.7743 9.3905C47.5316 9.50317 47.3279 9.66567 47.1633 9.878C47.0029 10.0903 46.8816 10.3525 46.7993 10.6645C46.7213 10.9722 46.6823 11.321 46.6823 11.711C46.6823 12.491 46.8426 13.0998 47.1633 13.5375C47.4883 13.9708 47.9801 14.1875 48.6388 14.1875ZM60.0253 13.791C59.6916 13.791 59.4186 13.7108 59.2063 13.5505C58.9939 13.3902 58.8574 13.141 58.7968 12.803C58.5454 13.1497 58.2724 13.3988 57.9778 13.5505C57.6831 13.7022 57.3668 13.778 57.0288 13.778C56.7731 13.778 56.5478 13.7347 56.3528 13.648C56.1621 13.557 56.0039 13.4335 55.8783 13.2775C55.7526 13.1172 55.6573 12.9287 55.5923 12.712C55.5316 12.4953 55.5013 12.2613 55.5013 12.01C55.5013 11.6417 55.5706 11.2712 55.7093 10.8985C55.8523 10.5215 56.0624 10.1835 56.3398 9.8845C56.6171 9.58117 56.9616 9.33417 57.3733 9.1435C57.7849 8.95283 58.2616 8.8575 58.8033 8.8575C59.0936 8.8575 59.3493 8.88133 59.5703 8.929C59.7913 8.97233 59.9993 9.03733 60.1943 9.124L59.5833 11.4705C59.4966 11.7998 59.4554 12.0685 59.4598 12.2765C59.4641 12.4802 59.4966 12.6405 59.5573 12.7575C59.6223 12.8745 59.7111 12.9547 59.8238 12.998C59.9364 13.037 60.0599 13.0565 60.1943 13.0565C60.4066 13.0565 60.6081 12.9958 60.7988 12.8745C60.9894 12.7532 61.1563 12.582 61.2993 12.361C61.4466 12.14 61.5614 11.8757 61.6438 11.568C61.7304 11.256 61.7738 10.9115 61.7738 10.5345C61.7738 9.9365 61.6784 9.41217 61.4878 8.9615C61.2971 8.51083 61.0328 8.136 60.6948 7.837C60.3611 7.53367 59.9646 7.30833 59.5053 7.161C59.0503 7.00933 58.5584 6.9335 58.0298 6.9335C57.4491 6.9335 56.9053 7.044 56.3983 7.265C55.8913 7.486 55.4493 7.7915 55.0723 8.1815C54.6953 8.5715 54.3963 9.033 54.1753 9.566C53.9586 10.099 53.8503 10.6797 53.8503 11.308C53.8503 12.0447 53.9651 12.6925 54.1948 13.2515C54.4288 13.8062 54.7451 14.272 55.1438 14.649C55.5468 15.026 56.0191 15.3098 56.5608 15.5005C57.1024 15.6912 57.6831 15.7865 58.3028 15.7865C58.9614 15.7865 59.5421 15.715 60.0448 15.572C60.5518 15.429 60.9894 15.247 61.3578 15.026C61.4444 14.974 61.5203 14.9588 61.5853 14.9805C61.6503 14.9978 61.6979 15.0455 61.7283 15.1235L61.8973 15.5525C61.4293 15.8645 60.8984 16.1093 60.3048 16.287C59.7154 16.4647 59.0481 16.5535 58.3028 16.5535C57.5488 16.5535 56.8489 16.4343 56.2033 16.196C55.5576 15.9577 54.9964 15.6132 54.5198 15.1625C54.0474 14.7162 53.6748 14.168 53.4018 13.518C53.1331 12.868 52.9988 12.1313 52.9988 11.308C52.9988 10.8357 53.0573 10.3807 53.1743 9.943C53.2956 9.50533 53.4646 9.098 53.6813 8.721C53.8979 8.33967 54.1579 7.993 54.4613 7.681C54.7646 7.36467 55.1026 7.096 55.4753 6.875C55.8479 6.64967 56.2488 6.47633 56.6778 6.355C57.1111 6.22933 57.5618 6.1665 58.0298 6.1665C58.4284 6.1665 58.8184 6.20983 59.1998 6.2965C59.5811 6.38317 59.9408 6.511 60.2788 6.68C60.6211 6.849 60.9331 7.05917 61.2148 7.3105C61.5008 7.5575 61.7478 7.8435 61.9558 8.1685C62.1638 8.48917 62.3241 8.84883 62.4368 9.2475C62.5538 9.64183 62.6123 10.0708 62.6123 10.5345C62.6123 11.0025 62.5451 11.4358 62.4108 11.8345C62.2808 12.2288 62.0988 12.5712 61.8648 12.8615C61.6351 13.1518 61.3621 13.3793 61.0458 13.544C60.7294 13.7087 60.3893 13.791 60.0253 13.791ZM57.2563 13.011C57.3906 13.011 57.5249 12.9893 57.6593 12.946C57.7979 12.9027 57.9301 12.8268 58.0558 12.7185C58.1858 12.6102 58.3049 12.4628 58.4133 12.2765C58.5216 12.0902 58.6126 11.8562 58.6863 11.5745L59.1803 9.657C59.0113 9.618 58.8249 9.5985 58.6213 9.5985C58.2963 9.5985 57.9973 9.66783 57.7243 9.8065C57.4556 9.94083 57.2238 10.1185 57.0288 10.3395C56.8338 10.5605 56.6799 10.814 56.5673 11.1C56.4589 11.386 56.4048 11.6785 56.4048 11.9775C56.4048 12.2895 56.4763 12.5408 56.6193 12.7315C56.7623 12.9178 56.9746 13.011 57.2563 13.011ZM65.3411 8.4155V15H64.1841V8.4155H65.3411ZM65.5881 6.3485C65.5881 6.46117 65.5643 6.56733 65.5166 6.667C65.4733 6.76233 65.4126 6.849 65.3346 6.927C65.261 7.00067 65.1721 7.05917 65.0681 7.1025C64.9685 7.14583 64.8623 7.1675 64.7496 7.1675C64.637 7.1675 64.5308 7.14583 64.4311 7.1025C64.3358 7.05917 64.2513 7.00067 64.1776 6.927C64.104 6.849 64.0455 6.76233 64.0021 6.667C63.9588 6.56733 63.9371 6.46117 63.9371 6.3485C63.9371 6.23583 63.9588 6.12967 64.0021 6.03C64.0455 5.926 64.104 5.83717 64.1776 5.7635C64.2513 5.6855 64.3358 5.62483 64.4311 5.5815C64.5308 5.53817 64.637 5.5165 64.7496 5.5165C64.8623 5.5165 64.9685 5.53817 65.0681 5.5815C65.1721 5.62483 65.261 5.6855 65.3346 5.7635C65.4126 5.83717 65.4733 5.926 65.5166 6.03C65.5643 6.12967 65.5881 6.23583 65.5881 6.3485ZM67.2422 17.2295V8.4155H67.9377C68.1024 8.4155 68.2042 8.49567 68.2432 8.656L68.3407 9.436C68.6224 9.09367 68.9452 8.8185 69.3092 8.6105C69.6732 8.4025 70.0892 8.2985 70.5572 8.2985C70.9385 8.2985 71.283 8.37217 71.5907 8.5195C71.8984 8.6625 72.1605 8.877 72.3772 9.163C72.5939 9.44467 72.7607 9.79567 72.8777 10.216C72.9947 10.6363 73.0532 11.1195 73.0532 11.6655C73.0532 12.1508 72.9882 12.6037 72.8582 13.024C72.7282 13.44 72.5397 13.8018 72.2927 14.1095C72.05 14.4128 71.751 14.6533 71.3957 14.831C71.0447 15.0043 70.6482 15.091 70.2062 15.091C69.8032 15.091 69.4565 15.0238 69.1662 14.8895C68.8802 14.7552 68.6267 14.5645 68.4057 14.3175V17.2295H67.2422ZM70.1802 9.2345C69.8032 9.2345 69.4717 9.32117 69.1857 9.4945C68.904 9.66783 68.644 9.91267 68.4057 10.229V13.414C68.6137 13.7 68.8434 13.9015 69.0947 14.0185C69.3504 14.1355 69.6342 14.194 69.9462 14.194C70.5615 14.194 71.0339 13.9752 71.3632 13.5375C71.6925 13.0998 71.8572 12.4758 71.8572 11.6655C71.8572 11.2365 71.8182 10.8682 71.7402 10.5605C71.6665 10.2528 71.5582 10.0015 71.4152 9.8065C71.2722 9.60717 71.0967 9.462 70.8887 9.371C70.6807 9.28 70.4445 9.2345 70.1802 9.2345ZM78.3643 9.501C78.3123 9.59633 78.2321 9.644 78.1238 9.644C78.0588 9.644 77.9851 9.62017 77.9028 9.5725C77.8205 9.52483 77.7186 9.47283 77.5973 9.4165C77.4803 9.35583 77.3395 9.30167 77.1748 9.254C77.0101 9.202 76.8151 9.176 76.5898 9.176C76.3948 9.176 76.2193 9.202 76.0633 9.254C75.9073 9.30167 75.773 9.36883 75.6603 9.4555C75.552 9.54217 75.4675 9.644 75.4068 9.761C75.3505 9.87367 75.3223 9.99717 75.3223 10.1315C75.3223 10.3005 75.37 10.4413 75.4653 10.554C75.565 10.6667 75.695 10.7642 75.8553 10.8465C76.0156 10.9288 76.1976 11.0025 76.4013 11.0675C76.605 11.1282 76.813 11.1953 77.0253 11.269C77.242 11.3383 77.4521 11.4163 77.6558 11.503C77.8595 11.5897 78.0415 11.698 78.2018 11.828C78.3621 11.958 78.49 12.1183 78.5853 12.309C78.685 12.4953 78.7348 12.7207 78.7348 12.985C78.7348 13.2883 78.6806 13.57 78.5723 13.83C78.464 14.0857 78.3036 14.3088 78.0913 14.4995C77.879 14.6858 77.619 14.8332 77.3113 14.9415C77.0036 15.0498 76.6483 15.104 76.2453 15.104C75.786 15.104 75.37 15.0303 74.9973 14.883C74.6246 14.7313 74.3083 14.5385 74.0483 14.3045L74.3213 13.8625C74.356 13.8062 74.3971 13.7628 74.4448 13.7325C74.4925 13.7022 74.5531 13.687 74.6268 13.687C74.7048 13.687 74.7871 13.7173 74.8738 13.778C74.9605 13.8387 75.0645 13.9058 75.1858 13.9795C75.3115 14.0532 75.4631 14.1203 75.6408 14.181C75.8185 14.2417 76.0395 14.272 76.3038 14.272C76.5291 14.272 76.7263 14.2438 76.8953 14.1875C77.0643 14.1268 77.2051 14.0467 77.3178 13.947C77.4305 13.8473 77.5128 13.7325 77.5648 13.6025C77.6211 13.4725 77.6493 13.3338 77.6493 13.1865C77.6493 13.0045 77.5995 12.855 77.4998 12.738C77.4045 12.6167 77.2766 12.5148 77.1163 12.4325C76.956 12.3458 76.7718 12.2722 76.5638 12.2115C76.3601 12.1465 76.15 12.0793 75.9333 12.01C75.721 11.9407 75.5108 11.8627 75.3028 11.776C75.0991 11.685 74.9171 11.5723 74.7568 11.438C74.5965 11.3037 74.4665 11.139 74.3668 10.944C74.2715 10.7447 74.2238 10.5042 74.2238 10.2225C74.2238 9.97117 74.2758 9.73067 74.3798 9.501C74.4838 9.267 74.6355 9.06333 74.8348 8.89C75.0341 8.71233 75.279 8.5715 75.5693 8.4675C75.8596 8.3635 76.1911 8.3115 76.5638 8.3115C76.9971 8.3115 77.385 8.38083 77.7273 8.5195C78.074 8.65383 78.373 8.84017 78.6243 9.0785L78.3643 9.501ZM81.2453 8.4155V12.6145C81.2453 13.1128 81.358 13.4985 81.5833 13.7715C81.813 14.0445 82.1618 14.181 82.6298 14.181C82.9678 14.181 83.2863 14.1008 83.5853 13.9405C83.8843 13.7802 84.1595 13.557 84.4108 13.271V8.4155H85.5678V15H84.8788C84.7141 15 84.6102 14.9198 84.5668 14.7595L84.4758 14.051C84.1898 14.3673 83.8691 14.623 83.5138 14.818C83.1585 15.0087 82.7511 15.104 82.2918 15.104C81.9321 15.104 81.6136 15.0455 81.3363 14.9285C81.0633 14.8072 80.8336 14.6382 80.6473 14.4215C80.461 14.2048 80.3201 13.9427 80.2248 13.635C80.1338 13.3273 80.0883 12.9872 80.0883 12.6145V8.4155H81.2453ZM87.4023 15V8.4155H88.0978C88.2625 8.4155 88.3643 8.49567 88.4033 8.656L88.4878 9.332C88.7305 9.033 89.0035 8.78817 89.3068 8.5975C89.6102 8.40683 89.9612 8.3115 90.3598 8.3115C90.8018 8.3115 91.1593 8.435 91.4323 8.682C91.7097 8.929 91.909 9.26267 92.0303 9.683C92.1257 9.44467 92.247 9.23883 92.3943 9.0655C92.546 8.89217 92.715 8.74917 92.9013 8.6365C93.0877 8.52383 93.2848 8.4415 93.4928 8.3895C93.7052 8.3375 93.9197 8.3115 94.1363 8.3115C94.483 8.3115 94.7907 8.36783 95.0593 8.4805C95.3323 8.58883 95.562 8.74917 95.7483 8.9615C95.939 9.17383 96.0842 9.436 96.1838 9.748C96.2835 10.0557 96.3333 10.4088 96.3333 10.8075V15H95.1698V10.8075C95.1698 10.2918 95.0572 9.90183 94.8318 9.6375C94.6065 9.36883 94.2815 9.2345 93.8568 9.2345C93.6662 9.2345 93.4842 9.26917 93.3108 9.3385C93.1418 9.4035 92.9923 9.501 92.8623 9.631C92.7323 9.761 92.6283 9.92567 92.5503 10.125C92.4767 10.32 92.4398 10.5475 92.4398 10.8075V15H91.2763V10.8075C91.2763 10.2788 91.1702 9.8845 90.9578 9.6245C90.7455 9.3645 90.4357 9.2345 90.0283 9.2345C89.7423 9.2345 89.478 9.3125 89.2353 9.4685C88.9927 9.62017 88.7695 9.82817 88.5658 10.0925V15H87.4023ZM101.017 5.5815C101.411 5.5815 101.779 5.64 102.122 5.757C102.464 5.874 102.761 6.04517 103.012 6.2705C103.264 6.4915 103.461 6.76233 103.604 7.083C103.747 7.40367 103.818 7.76767 103.818 8.175C103.818 8.52167 103.766 8.8445 103.662 9.1435C103.558 9.43817 103.417 9.71983 103.24 9.9885C103.062 10.2572 102.856 10.5193 102.622 10.775C102.393 11.0307 102.148 11.2885 101.888 11.5485L99.4308 14.0575C99.6041 14.0098 99.7796 13.973 99.9573 13.947C100.135 13.9167 100.306 13.9015 100.471 13.9015H103.591C103.716 13.9015 103.816 13.9383 103.89 14.012C103.963 14.0857 104 14.181 104 14.298V15H97.7863V14.6035C97.7863 14.5212 97.8036 14.4367 97.8383 14.35C97.873 14.2633 97.9271 14.1832 98.0008 14.1095L100.984 11.113C101.231 10.8617 101.457 10.6212 101.66 10.3915C101.864 10.1575 102.037 9.9235 102.18 9.6895C102.323 9.4555 102.434 9.21933 102.512 8.981C102.59 8.73833 102.629 8.4805 102.629 8.2075C102.629 7.9345 102.585 7.69617 102.499 7.4925C102.412 7.2845 102.293 7.11333 102.141 6.979C101.994 6.84467 101.818 6.745 101.615 6.68C101.411 6.61067 101.192 6.576 100.958 6.576C100.72 6.576 100.501 6.61067 100.302 6.68C100.102 6.74933 99.9248 6.84683 99.7688 6.9725C99.6171 7.09383 99.4893 7.239 99.3853 7.408C99.2813 7.577 99.2076 7.76333 99.1643 7.967C99.1123 8.11867 99.0408 8.2205 98.9498 8.2725C98.8631 8.32017 98.7396 8.33317 98.5793 8.3115L97.9748 8.2075C98.0355 7.78283 98.1525 7.408 98.3258 7.083C98.5035 6.75367 98.7245 6.4785 98.9888 6.2575C99.2575 6.0365 99.563 5.86967 99.9053 5.757C100.248 5.64 100.618 5.5815 101.017 5.5815ZM108.558 5.5815C108.952 5.5815 109.32 5.64 109.663 5.757C110.005 5.874 110.302 6.04517 110.553 6.2705C110.805 6.4915 111.002 6.76233 111.145 7.083C111.288 7.40367 111.359 7.76767 111.359 8.175C111.359 8.52167 111.307 8.8445 111.203 9.1435C111.099 9.43817 110.958 9.71983 110.781 9.9885C110.603 10.2572 110.397 10.5193 110.163 10.775C109.934 11.0307 109.689 11.2885 109.429 11.5485L106.972 14.0575C107.145 14.0098 107.321 13.973 107.498 13.947C107.676 13.9167 107.847 13.9015 108.012 13.9015H111.132C111.257 13.9015 111.357 13.9383 111.431 14.012C111.504 14.0857 111.541 14.181 111.541 14.298V15H105.327V14.6035C105.327 14.5212 105.345 14.4367 105.379 14.35C105.414 14.2633 105.468 14.1832 105.542 14.1095L108.525 11.113C108.772 10.8617 108.998 10.6212 109.201 10.3915C109.405 10.1575 109.578 9.9235 109.721 9.6895C109.864 9.4555 109.975 9.21933 110.053 8.981C110.131 8.73833 110.17 8.4805 110.17 8.2075C110.17 7.9345 110.126 7.69617 110.04 7.4925C109.953 7.2845 109.834 7.11333 109.682 6.979C109.535 6.84467 109.359 6.745 109.156 6.68C108.952 6.61067 108.733 6.576 108.499 6.576C108.261 6.576 108.042 6.61067 107.843 6.68C107.643 6.74933 107.466 6.84683 107.31 6.9725C107.158 7.09383 107.03 7.239 106.926 7.408C106.822 7.577 106.749 7.76333 106.705 7.967C106.653 8.11867 106.582 8.2205 106.491 8.2725C106.404 8.32017 106.281 8.33317 106.12 8.3115L105.516 8.2075C105.576 7.78283 105.693 7.408 105.867 7.083C106.044 6.75367 106.265 6.4785 106.53 6.2575C106.798 6.0365 107.104 5.86967 107.446 5.757C107.789 5.64 108.159 5.5815 108.558 5.5815ZM116.027 15.104C115.564 15.104 115.139 15.0433 114.753 14.922C114.368 14.7963 114.036 14.6187 113.759 14.389C113.481 14.1593 113.267 13.882 113.115 13.557C112.964 13.2277 112.888 12.8593 112.888 12.452C112.888 11.854 113.044 11.3622 113.356 10.9765C113.668 10.5865 114.114 10.3092 114.695 10.1445C114.205 9.9625 113.835 9.69167 113.583 9.332C113.336 8.968 113.213 8.53467 113.213 8.032C113.213 7.68967 113.28 7.369 113.414 7.07C113.549 6.771 113.739 6.511 113.986 6.29C114.233 6.069 114.528 5.89567 114.87 5.77C115.217 5.64433 115.603 5.5815 116.027 5.5815C116.448 5.5815 116.831 5.64433 117.178 5.77C117.524 5.89567 117.821 6.069 118.068 6.29C118.315 6.511 118.506 6.771 118.64 7.07C118.775 7.369 118.842 7.68967 118.842 8.032C118.842 8.53467 118.716 8.968 118.465 9.332C118.213 9.69167 117.845 9.9625 117.36 10.1445C117.94 10.3092 118.387 10.5865 118.699 10.9765C119.011 11.3622 119.167 11.854 119.167 12.452C119.167 12.8593 119.089 13.2277 118.933 13.557C118.781 13.882 118.567 14.1593 118.289 14.389C118.016 14.6187 117.687 14.7963 117.301 14.922C116.916 15.0433 116.491 15.104 116.027 15.104ZM116.027 14.181C116.331 14.181 116.601 14.1398 116.84 14.0575C117.082 13.9708 117.286 13.8517 117.451 13.7C117.62 13.544 117.748 13.3598 117.834 13.1475C117.925 12.9308 117.971 12.6925 117.971 12.4325C117.971 12.1118 117.917 11.8388 117.808 11.6135C117.704 11.3838 117.561 11.1975 117.379 11.0545C117.202 10.9115 116.996 10.8075 116.762 10.7425C116.528 10.6732 116.283 10.6385 116.027 10.6385C115.772 10.6385 115.527 10.6732 115.293 10.7425C115.059 10.8075 114.851 10.9115 114.669 11.0545C114.491 11.1975 114.348 11.3838 114.24 11.6135C114.136 11.8388 114.084 12.1118 114.084 12.4325C114.084 12.6925 114.127 12.9308 114.214 13.1475C114.305 13.3598 114.433 13.544 114.597 13.7C114.766 13.8517 114.97 13.9708 115.208 14.0575C115.451 14.1398 115.724 14.181 116.027 14.181ZM116.027 9.709C116.331 9.709 116.588 9.6635 116.801 9.5725C117.017 9.47717 117.193 9.35367 117.327 9.202C117.462 9.046 117.559 8.86833 117.62 8.669C117.68 8.46967 117.711 8.26383 117.711 8.0515C117.711 7.83483 117.674 7.63117 117.6 7.4405C117.531 7.24983 117.425 7.083 117.282 6.94C117.143 6.797 116.968 6.68433 116.755 6.602C116.547 6.51967 116.305 6.4785 116.027 6.4785C115.75 6.4785 115.505 6.51967 115.293 6.602C115.085 6.68433 114.909 6.797 114.766 6.94C114.628 7.083 114.521 7.24983 114.448 7.4405C114.378 7.63117 114.344 7.83483 114.344 8.0515C114.344 8.26383 114.374 8.46967 114.435 8.669C114.495 8.86833 114.593 9.046 114.727 9.202C114.862 9.35367 115.035 9.47717 115.247 9.5725C115.464 9.6635 115.724 9.709 116.027 9.709ZM120.52 14.285C120.52 14.1723 120.539 14.0662 120.578 13.9665C120.622 13.8668 120.678 13.7802 120.747 13.7065C120.821 13.6328 120.908 13.5743 121.007 13.531C121.107 13.4877 121.213 13.466 121.326 13.466C121.439 13.466 121.545 13.4877 121.644 13.531C121.744 13.5743 121.831 13.6328 121.904 13.7065C121.978 13.7802 122.037 13.8668 122.08 13.9665C122.123 14.0662 122.145 14.1723 122.145 14.285C122.145 14.402 122.123 14.5103 122.08 14.61C122.037 14.7053 121.978 14.7898 121.904 14.8635C121.831 14.9372 121.744 14.9935 121.644 15.0325C121.545 15.0758 121.439 15.0975 121.326 15.0975C121.213 15.0975 121.107 15.0758 121.007 15.0325C120.908 14.9935 120.821 14.9372 120.747 14.8635C120.678 14.7898 120.622 14.7053 120.578 14.61C120.539 14.5103 120.52 14.402 120.52 14.285ZM128.37 9.5855C128.335 9.63317 128.3 9.67 128.266 9.696C128.231 9.722 128.183 9.735 128.123 9.735C128.058 9.735 127.986 9.709 127.908 9.657C127.83 9.60067 127.733 9.54 127.616 9.475C127.503 9.41 127.362 9.3515 127.193 9.2995C127.028 9.24317 126.825 9.215 126.582 9.215C126.257 9.215 125.971 9.2735 125.724 9.3905C125.477 9.50317 125.269 9.66783 125.1 9.8845C124.935 10.1012 124.81 10.3633 124.723 10.671C124.641 10.9787 124.6 11.3232 124.6 11.7045C124.6 12.1032 124.645 12.4585 124.736 12.7705C124.827 13.0782 124.955 13.3382 125.12 13.5505C125.289 13.7585 125.49 13.9188 125.724 14.0315C125.962 14.1398 126.229 14.194 126.524 14.194C126.805 14.194 127.037 14.1615 127.219 14.0965C127.401 14.0272 127.551 13.9513 127.668 13.869C127.789 13.7867 127.889 13.713 127.967 13.648C128.049 13.5787 128.129 13.544 128.207 13.544C128.302 13.544 128.376 13.5808 128.428 13.6545L128.753 14.077C128.61 14.2547 128.448 14.4063 128.266 14.532C128.084 14.6577 127.886 14.7638 127.674 14.8505C127.466 14.9328 127.247 14.9935 127.018 15.0325C126.788 15.0715 126.554 15.091 126.316 15.091C125.904 15.091 125.52 15.0152 125.165 14.8635C124.814 14.7118 124.509 14.493 124.249 14.207C123.989 13.9167 123.785 13.5613 123.638 13.141C123.49 12.7207 123.417 12.2418 123.417 11.7045C123.417 11.2148 123.484 10.762 123.618 10.346C123.757 9.93 123.956 9.5725 124.216 9.2735C124.48 8.97017 124.803 8.734 125.185 8.565C125.57 8.396 126.012 8.3115 126.511 8.3115C126.974 8.3115 127.382 8.38733 127.733 8.539C128.088 8.68633 128.402 8.8965 128.675 9.1695L128.37 9.5855ZM132.656 8.3115C133.137 8.3115 133.571 8.39167 133.956 8.552C134.342 8.71233 134.671 8.93983 134.944 9.2345C135.217 9.52917 135.425 9.88667 135.568 10.307C135.716 10.723 135.789 11.1888 135.789 11.7045C135.789 12.2245 135.716 12.6925 135.568 13.1085C135.425 13.5245 135.217 13.8798 134.944 14.1745C134.671 14.4692 134.342 14.6967 133.956 14.857C133.571 15.013 133.137 15.091 132.656 15.091C132.171 15.091 131.733 15.013 131.343 14.857C130.958 14.6967 130.628 14.4692 130.355 14.1745C130.082 13.8798 129.872 13.5245 129.725 13.1085C129.582 12.6925 129.51 12.2245 129.51 11.7045C129.51 11.1888 129.582 10.723 129.725 10.307C129.872 9.88667 130.082 9.52917 130.355 9.2345C130.628 8.93983 130.958 8.71233 131.343 8.552C131.733 8.39167 132.171 8.3115 132.656 8.3115ZM132.656 14.1875C133.306 14.1875 133.792 13.9708 134.112 13.5375C134.433 13.0998 134.593 12.491 134.593 11.711C134.593 10.9267 134.433 10.3157 134.112 9.878C133.792 9.44033 133.306 9.2215 132.656 9.2215C132.327 9.2215 132.039 9.27783 131.792 9.3905C131.549 9.50317 131.346 9.66567 131.181 9.878C131.021 10.0903 130.899 10.3525 130.817 10.6645C130.739 10.9722 130.7 11.321 130.7 11.711C130.7 12.491 130.86 13.0998 131.181 13.5375C131.506 13.9708 131.998 14.1875 132.656 14.1875ZM137.257 15V8.4155H137.952C138.117 8.4155 138.219 8.49567 138.258 8.656L138.342 9.332C138.585 9.033 138.858 8.78817 139.161 8.5975C139.465 8.40683 139.816 8.3115 140.214 8.3115C140.656 8.3115 141.014 8.435 141.287 8.682C141.564 8.929 141.763 9.26267 141.885 9.683C141.98 9.44467 142.101 9.23883 142.249 9.0655C142.4 8.89217 142.569 8.74917 142.756 8.6365C142.942 8.52383 143.139 8.4415 143.347 8.3895C143.56 8.3375 143.774 8.3115 143.991 8.3115C144.337 8.3115 144.645 8.36783 144.914 8.4805C145.187 8.58883 145.416 8.74917 145.603 8.9615C145.793 9.17383 145.939 9.436 146.038 9.748C146.138 10.0557 146.188 10.4088 146.188 10.8075V15H145.024V10.8075C145.024 10.2918 144.912 9.90183 144.686 9.6375C144.461 9.36883 144.136 9.2345 143.711 9.2345C143.521 9.2345 143.339 9.26917 143.165 9.3385C142.996 9.4035 142.847 9.501 142.717 9.631C142.587 9.761 142.483 9.92567 142.405 10.125C142.331 10.32 142.294 10.5475 142.294 10.8075V15H141.131V10.8075C141.131 10.2788 141.025 9.8845 140.812 9.6245C140.6 9.3645 140.29 9.2345 139.883 9.2345C139.597 9.2345 139.332 9.3125 139.09 9.4685C138.847 9.62017 138.624 9.82817 138.42 10.0925V15H137.257Z" fill="white"/>
</svg>
