<svg width="100" height="20" viewBox="0 0 100 20" fill="none" xmlns="http://www.w3.org/2000/svg">
<g clip-path="url(#clip0_4_198)">
<g clip-path="url(#clip1_4_198)">
<path d="M16.9118 13.4559C16.9719 13.8435 16.845 14.0076 16.7167 14.0076C16.5885 14.0076 16.4028 13.85 16.1957 13.5373C15.9887 13.2245 15.9179 12.8769 16.0181 12.6986C16.0558 12.6368 16.1167 12.5915 16.1881 12.572C16.2595 12.5525 16.3359 12.5604 16.4015 12.5939C16.7421 12.718 16.8757 13.2233 16.9118 13.4559ZM15.0241 14.3061C15.4343 14.6408 15.5585 15.0389 15.3421 15.3193C15.2762 15.3977 15.1922 15.46 15.0968 15.5013C15.0014 15.5426 14.8974 15.5617 14.793 15.557C14.5642 15.5574 14.3425 15.4801 14.1665 15.3386C13.7951 15.0246 13.6856 14.5142 13.9287 14.2247C13.9824 14.1653 14.0494 14.1186 14.1247 14.0881C14.2 14.0577 14.2814 14.0443 14.3629 14.049C14.6077 14.0569 14.8418 14.1479 15.0241 14.3061ZM14.3402 17.5367C16.1022 17.5367 18.0139 18.1208 20.1313 19.9351C20.3424 20.1161 20.6243 19.8912 20.4399 19.6651C18.3599 17.1258 16.4322 16.6412 14.5178 16.2329C12.172 15.7315 10.9643 14.4535 10.1187 13.0514C9.95167 12.7723 9.87552 12.8214 9.86083 13.1806C9.84679 13.7131 9.88841 14.2456 9.98507 14.7701C9.89022 14.7701 9.79403 14.7701 9.69918 14.7701C8.49698 14.7701 7.32179 14.4252 6.3222 13.7792C5.3226 13.1331 4.54352 12.2148 4.08346 11.1404C3.6234 10.0661 3.50302 8.88385 3.73756 7.7433C3.9721 6.60275 4.55101 5.55509 5.40109 4.7328C6.25117 3.91051 7.33424 3.35053 8.51334 3.12366C9.69244 2.89679 10.9146 3.01322 12.0253 3.45824C13.136 3.90326 14.0853 4.65688 14.7532 5.62379C15.4211 6.5907 15.7776 7.72748 15.7776 8.89037C15.7782 9.11877 15.7653 9.347 15.7389 9.57397C15.0985 9.49597 14.4514 9.48427 13.8085 9.53908C13.5773 9.55846 13.6107 9.6683 13.7844 9.69285C15.7883 10.043 17.175 11.2435 17.4902 13.4339C17.4914 13.445 17.4961 13.4555 17.5037 13.4638C17.5114 13.4721 17.5215 13.478 17.5328 13.4804C17.544 13.4828 17.5558 13.4818 17.5664 13.4774C17.577 13.473 17.5859 13.4654 17.5918 13.4559C18.6342 11.7703 19.0706 9.79838 18.8329 7.84774C18.5952 5.89709 17.6968 4.07738 16.2778 2.67245C14.8588 1.26752 12.999 0.356356 10.9885 0.0810911C8.97799 -0.194174 6.92984 0.181935 5.1635 1.15075C3.39717 2.11957 2.01197 3.62662 1.22396 5.43683C0.435958 7.24704 0.289461 9.25863 0.807322 11.1578C1.32518 13.057 2.47828 14.737 4.08676 15.9358C5.69524 17.1346 7.66865 17.7848 9.69918 17.7849C11.0418 17.7887 12.379 17.5355 14.3402 17.5355V17.5367Z" fill="#3E9CDC"/>
</g>
</g>
<path d="M40.3019 10.346C40.3019 10.7837 40.2564 11.2018 40.1654 11.6005C40.0788 11.9948 39.9509 12.361 39.7819 12.699C39.6129 13.037 39.4071 13.3447 39.1644 13.622C38.9218 13.8993 38.6488 14.1398 38.3454 14.3435L40.7309 16.924H39.6909C39.5349 16.924 39.3963 16.9023 39.2749 16.859C39.1536 16.8157 39.0431 16.7398 38.9434 16.6315L37.3119 14.8505C37.0649 14.9285 36.8071 14.9892 36.5384 15.0325C36.2741 15.0758 35.9968 15.0975 35.7064 15.0975C35.0218 15.0975 34.3978 14.9827 33.8344 14.753C33.2711 14.519 32.7879 14.1918 32.3849 13.7715C31.9819 13.3512 31.6699 12.8507 31.4489 12.27C31.2279 11.685 31.1174 11.0437 31.1174 10.346C31.1174 9.64833 31.2279 9.00917 31.4489 8.4285C31.6699 7.8435 31.9819 7.34083 32.3849 6.9205C32.7879 6.49583 33.2711 6.1665 33.8344 5.9325C34.3978 5.6985 35.0218 5.5815 35.7064 5.5815C36.3911 5.5815 37.0151 5.6985 37.5784 5.9325C38.1461 6.1665 38.6314 6.49583 39.0344 6.9205C39.4374 7.34083 39.7494 7.8435 39.9704 8.4285C40.1914 9.00917 40.3019 9.64833 40.3019 10.346ZM39.0084 10.346C39.0084 9.774 38.9304 9.2605 38.7744 8.8055C38.6184 8.3505 38.3974 7.967 38.1114 7.655C37.8254 7.33867 37.4788 7.096 37.0714 6.927C36.6641 6.758 36.2091 6.6735 35.7064 6.6735C35.2081 6.6735 34.7553 6.758 34.3479 6.927C33.9406 7.096 33.5918 7.33867 33.3014 7.655C33.0154 7.967 32.7944 8.3505 32.6384 8.8055C32.4824 9.2605 32.4044 9.774 32.4044 10.346C32.4044 10.918 32.4824 11.4315 32.6384 11.8865C32.7944 12.3372 33.0154 12.7207 33.3014 13.037C33.5918 13.349 33.9406 13.5895 34.3479 13.7585C34.7553 13.9232 35.2081 14.0055 35.7064 14.0055C36.2091 14.0055 36.6641 13.9232 37.0714 13.7585C37.4788 13.5895 37.8254 13.349 38.1114 13.037C38.3974 12.7207 38.6184 12.3372 38.7744 11.8865C38.9304 11.4315 39.0084 10.918 39.0084 10.346ZM43.3606 15H42.0996V5.6855H43.3606V15ZM44.7551 5.6855H45.8016C45.9143 5.6855 46.0075 5.71367 46.0811 5.77C46.1592 5.82633 46.209 5.89783 46.2307 5.9845L48.1547 12.4585C48.185 12.5755 48.2132 12.7012 48.2392 12.8355C48.2695 12.9698 48.2976 13.1107 48.3237 13.258C48.354 13.1107 48.3843 12.9698 48.4147 12.8355C48.4493 12.6968 48.4862 12.5712 48.5251 12.4585L50.7157 5.9845C50.7417 5.91083 50.7915 5.84367 50.8652 5.783C50.9432 5.718 51.0363 5.6855 51.1447 5.6855H51.5087C51.6213 5.6855 51.7123 5.71367 51.7817 5.77C51.851 5.82633 51.903 5.89783 51.9377 5.9845L54.1217 12.4585C54.1607 12.5712 54.1953 12.6925 54.2257 12.8225C54.2603 12.9525 54.2907 13.0868 54.3167 13.2255C54.3427 13.0868 54.3687 12.9525 54.3947 12.8225C54.4207 12.6925 54.4488 12.5712 54.4792 12.4585L56.4097 5.9845C56.4313 5.9065 56.479 5.83717 56.5527 5.7765C56.6307 5.71583 56.7238 5.6855 56.8322 5.6855H57.8137L54.9082 15H53.7772L51.4176 7.8955C51.37 7.76117 51.3267 7.60517 51.2876 7.4275C51.266 7.51417 51.2443 7.59867 51.2227 7.681C51.2053 7.759 51.1858 7.8305 51.1642 7.8955L48.7916 15H47.6606L44.7551 5.6855ZM60.4612 15H59.2002V5.6855H60.4612V15ZM65.1949 8.4155H66.1049C66.1959 8.4155 66.2717 8.43933 66.3324 8.487C66.3974 8.53467 66.4407 8.591 66.4624 8.656L67.7234 12.894C67.7581 13.0457 67.7906 13.1952 67.8209 13.3425C67.8512 13.4855 67.8772 13.6285 67.8989 13.7715C67.9336 13.6285 67.9726 13.4855 68.0159 13.3425C68.0592 13.1952 68.1047 13.0457 68.1524 12.894L69.5434 8.63C69.5651 8.565 69.6019 8.51083 69.6539 8.4675C69.7102 8.42417 69.7774 8.4025 69.8554 8.4025H70.3624C70.4491 8.4025 70.5206 8.42417 70.5769 8.4675C70.6332 8.51083 70.6722 8.565 70.6939 8.63L72.0524 12.894C72.0957 13.0457 72.1369 13.1952 72.1759 13.3425C72.2149 13.4898 72.2517 13.635 72.2864 13.778C72.3124 13.635 72.3406 13.492 72.3709 13.349C72.4056 13.2017 72.4424 13.05 72.4814 12.894L73.7684 8.656C73.7901 8.58667 73.8312 8.53033 73.8919 8.487C73.9526 8.43933 74.0241 8.4155 74.1064 8.4155H74.9774L72.8454 15H71.9289C71.8162 15 71.7382 14.9263 71.6949 14.779L70.2389 10.3135C70.2042 10.2138 70.1761 10.1142 70.1544 10.0145C70.1327 9.9105 70.1111 9.80867 70.0894 9.709C70.0677 9.80867 70.0439 9.9105 70.0179 10.0145C69.9962 10.1185 69.9702 10.2203 69.9399 10.32L68.4579 14.779C68.4189 14.9263 68.3322 15 68.1979 15H67.3269L65.1949 8.4155ZM80.2138 15C80.1011 15 80.0144 14.9827 79.9538 14.948C79.8931 14.909 79.8454 14.8353 79.8108 14.727L79.6808 14.1095C79.5074 14.2655 79.3363 14.4063 79.1673 14.532C79.0026 14.6533 78.8293 14.7573 78.6473 14.844C78.4696 14.9263 78.2768 14.9892 78.0688 15.0325C77.8651 15.0802 77.6376 15.104 77.3863 15.104C77.1306 15.104 76.8901 15.0693 76.6648 15C76.4394 14.9263 76.2423 14.818 76.0733 14.675C75.9086 14.532 75.7764 14.3522 75.6768 14.1355C75.5814 13.9145 75.5338 13.6545 75.5338 13.3555C75.5338 13.0955 75.6053 12.8463 75.7483 12.608C75.8913 12.3653 76.1231 12.1508 76.4438 11.9645C76.7644 11.7782 77.1826 11.6265 77.6983 11.5095C78.2139 11.3882 78.8466 11.3188 79.5963 11.3015V10.788C79.5963 10.2767 79.4858 9.891 79.2648 9.631C79.0438 9.36667 78.7209 9.2345 78.2963 9.2345C78.0103 9.2345 77.7698 9.27133 77.5748 9.345C77.3841 9.41433 77.2173 9.4945 77.0743 9.5855C76.9356 9.67217 76.8143 9.75233 76.7103 9.826C76.6106 9.89533 76.5109 9.93 76.4113 9.93C76.3333 9.93 76.2661 9.9105 76.2098 9.8715C76.1534 9.82817 76.1058 9.77617 76.0668 9.7155L75.8588 9.345C76.2228 8.994 76.6149 8.73183 77.0353 8.5585C77.4556 8.38517 77.9214 8.2985 78.4328 8.2985C78.8011 8.2985 79.1283 8.35917 79.4143 8.4805C79.7003 8.60183 79.9408 8.77083 80.1358 8.9875C80.3308 9.20417 80.4781 9.46633 80.5778 9.774C80.6774 10.0817 80.7273 10.4197 80.7273 10.788V15H80.2138ZM77.7308 14.2915C77.9344 14.2915 78.1208 14.272 78.2898 14.233C78.4588 14.1897 78.6169 14.1312 78.7643 14.0575C78.9159 13.9795 79.0589 13.8863 79.1933 13.778C79.3319 13.6653 79.4663 13.5397 79.5963 13.401V12.036C79.0633 12.0533 78.6083 12.0967 78.2313 12.166C77.8586 12.231 77.5531 12.3177 77.3148 12.426C77.0808 12.5343 76.9096 12.6622 76.8013 12.8095C76.6973 12.9568 76.6453 13.1215 76.6453 13.3035C76.6453 13.4768 76.6734 13.6263 76.7298 13.752C76.7861 13.8777 76.8619 13.9817 76.9573 14.064C77.0569 14.142 77.1718 14.2005 77.3018 14.2395C77.4361 14.2742 77.5791 14.2915 77.7308 14.2915ZM83.6857 5.4255V15H82.5287V5.4255H83.6857ZM86.7579 5.4255V15H85.6009V5.4255H86.7579ZM91.3317 8.3115C91.726 8.3115 92.09 8.37867 92.4237 8.513C92.7617 8.643 93.052 8.83367 93.2947 9.085C93.5417 9.332 93.7345 9.63967 93.8732 10.008C94.0119 10.372 94.0812 10.788 94.0812 11.256C94.0812 11.438 94.0617 11.5593 94.0227 11.62C93.9837 11.6807 93.91 11.711 93.8017 11.711H89.4012C89.4099 12.127 89.4662 12.4888 89.5702 12.7965C89.6742 13.1042 89.8172 13.362 89.9992 13.57C90.1812 13.7737 90.3979 13.9275 90.6492 14.0315C90.9005 14.1312 91.1822 14.181 91.4942 14.181C91.7845 14.181 92.0337 14.1485 92.2417 14.0835C92.454 14.0142 92.636 13.9405 92.7877 13.8625C92.9394 13.7845 93.065 13.713 93.1647 13.648C93.2687 13.5787 93.3575 13.544 93.4312 13.544C93.5265 13.544 93.6002 13.5808 93.6522 13.6545L93.9772 14.077C93.8342 14.2503 93.663 14.402 93.4637 14.532C93.2644 14.6577 93.0499 14.7617 92.8202 14.844C92.5949 14.9263 92.3609 14.987 92.1182 15.026C91.8755 15.0693 91.635 15.091 91.3967 15.091C90.9417 15.091 90.5214 15.0152 90.1357 14.8635C89.7544 14.7075 89.4229 14.4822 89.1412 14.1875C88.8639 13.8885 88.6472 13.5202 88.4912 13.0825C88.3352 12.6448 88.2572 12.1422 88.2572 11.5745C88.2572 11.1152 88.3265 10.6862 88.4652 10.2875C88.6082 9.88883 88.8119 9.54433 89.0762 9.254C89.3405 8.95933 89.6634 8.72967 90.0447 8.565C90.426 8.396 90.855 8.3115 91.3317 8.3115ZM91.3577 9.163C90.7987 9.163 90.3589 9.3255 90.0382 9.6505C89.7175 9.97117 89.5182 10.4175 89.4402 10.9895H93.0412C93.0412 10.7208 93.0022 10.476 92.9242 10.255C92.8505 10.0297 92.74 9.83683 92.5927 9.6765C92.4497 9.51183 92.2742 9.38617 92.0662 9.2995C91.8582 9.2085 91.622 9.163 91.3577 9.163ZM97.4604 15.104C96.9404 15.104 96.5396 14.9588 96.2579 14.6685C95.9806 14.3782 95.8419 13.96 95.8419 13.414V9.384H95.0489C94.9796 9.384 94.9211 9.3645 94.8734 9.3255C94.8257 9.28217 94.8019 9.21717 94.8019 9.1305V8.669L95.8809 8.5325L96.1474 6.498C96.1604 6.433 96.1886 6.381 96.2319 6.342C96.2796 6.29867 96.3402 6.277 96.4139 6.277H96.9989V8.5455H98.9034V9.384H96.9989V13.336C96.9989 13.6133 97.0661 13.8192 97.2004 13.9535C97.3347 14.0878 97.5081 14.155 97.7204 14.155C97.8417 14.155 97.9457 14.1398 98.0324 14.1095C98.1234 14.0748 98.2014 14.038 98.2664 13.999C98.3314 13.96 98.3856 13.9253 98.4289 13.895C98.4766 13.8603 98.5177 13.843 98.5524 13.843C98.6131 13.843 98.6672 13.8798 98.7149 13.9535L99.0529 14.506C98.8536 14.6923 98.6131 14.8397 98.3314 14.948C98.0497 15.052 97.7594 15.104 97.4604 15.104Z" fill="#C3C3C3"/>
<defs>
<clipPath id="clip0_4_198">
<rect width="20" height="20" fill="white" transform="translate(0.499939)"/>
</clipPath>
<clipPath id="clip1_4_198">
<rect width="20" height="20" fill="white" transform="translate(0.499939)"/>
</clipPath>
</defs>
</svg>
