<svg width="117" height="20" viewBox="0 0 117 20" fill="none" xmlns="http://www.w3.org/2000/svg">
<path d="M15.1804 12.2863C15.1804 12.9366 15.0574 13.5079 14.8113 14.0001C14.5652 14.4923 14.2341 14.8995 13.8181 15.2218C13.3259 15.6085 12.7839 15.8839 12.1921 16.048C11.6062 16.212 10.8591 16.2941 9.95093 16.2941H4.71265V3.20715H9.33569C10.2966 3.20715 11.0232 3.24524 11.5154 3.32141C12.0134 3.39172 12.4792 3.54407 12.9128 3.77844C13.3816 4.0304 13.7302 4.36731 13.9587 4.78918C14.1931 5.21106 14.3103 5.69739 14.3103 6.24817C14.3103 6.88684 14.1492 7.4552 13.8269 7.95325C13.5105 8.45129 13.071 8.8175 12.5085 9.05188V9.12219C13.3171 9.29211 13.9646 9.64075 14.4509 10.1681C14.9373 10.6896 15.1804 11.3956 15.1804 12.2863ZM10.9705 6.90735C10.9705 6.69641 10.9148 6.47961 10.8035 6.25696C10.698 6.0343 10.531 5.87317 10.3025 5.77356C10.0857 5.67981 9.82788 5.63 9.52905 5.62415C9.23608 5.61243 8.79663 5.60657 8.21069 5.60657H7.98218V8.37512H8.39526C8.95776 8.37512 9.35034 8.36926 9.573 8.35754C9.80151 8.34583 10.0359 8.2843 10.2761 8.17297C10.5398 8.04993 10.7214 7.88 10.821 7.66321C10.9207 7.44641 10.9705 7.19446 10.9705 6.90735ZM11.7966 12.2247C11.7966 11.8204 11.7146 11.504 11.5505 11.2755C11.3865 11.047 11.1404 10.8741 10.8123 10.757C10.613 10.6808 10.3376 10.6398 9.98608 10.6339C9.64038 10.6222 9.17456 10.6163 8.58862 10.6163H7.98218V13.8947H8.15796C9.01343 13.8947 9.60522 13.8888 9.93335 13.8771C10.2615 13.8654 10.5955 13.7863 10.9353 13.6398C11.2341 13.5109 11.4509 13.3234 11.5857 13.0773C11.7263 12.8253 11.7966 12.5411 11.7966 12.2247Z" fill="#3E9CDC"/>
<path d="M36.9337 11.633C36.9857 11.737 37.0356 11.8475 37.0832 11.9645C37.1309 12.0772 37.1786 12.1898 37.2262 12.3025C37.2696 12.1855 37.3151 12.0707 37.3627 11.958C37.4104 11.841 37.4624 11.7305 37.5187 11.6265L40.6777 5.9C40.7297 5.80033 40.7861 5.73967 40.8467 5.718C40.9117 5.69633 41.0006 5.6855 41.1132 5.6855H42.0427V15H40.9377V8.1555C40.9377 8.0645 40.9399 7.967 40.9442 7.863C40.9486 7.759 40.9551 7.65283 40.9637 7.5445L37.7722 13.3685C37.6726 13.5635 37.5209 13.661 37.3172 13.661H37.1352C36.9316 13.661 36.7799 13.5635 36.6802 13.3685L33.4172 7.525C33.4302 7.63767 33.4389 7.74817 33.4432 7.8565C33.4519 7.96483 33.4562 8.0645 33.4562 8.1555V15H32.3512V5.6855H33.2807C33.3934 5.6855 33.4801 5.69633 33.5407 5.718C33.6014 5.73967 33.6599 5.80033 33.7162 5.9L36.9337 11.633ZM45.1549 8.4155V10.996H46.5589C47.0139 10.996 47.3953 11.0502 47.7029 11.1585C48.0149 11.2668 48.2641 11.412 48.4504 11.594C48.6411 11.776 48.7776 11.9862 48.8599 12.2245C48.9423 12.4628 48.9834 12.7098 48.9834 12.9655C48.9834 13.2602 48.9314 13.5332 48.8274 13.7845C48.7234 14.0315 48.5696 14.246 48.3659 14.428C48.1623 14.6057 47.9109 14.7465 47.6119 14.8505C47.3129 14.9502 46.9684 15 46.5784 15H44.0499V8.4155H45.1549ZM51.5899 8.4155V15H50.4329V8.4155H51.5899ZM45.1549 11.841V14.155H46.5784C46.8124 14.155 47.0139 14.1268 47.1829 14.0705C47.3563 14.0098 47.4993 13.9275 47.6119 13.8235C47.7246 13.7152 47.8091 13.5895 47.8654 13.4465C47.9218 13.3035 47.9499 13.1475 47.9499 12.9785C47.9499 12.8225 47.9261 12.6773 47.8784 12.543C47.8308 12.4043 47.7506 12.283 47.6379 12.179C47.5296 12.075 47.3866 11.9927 47.2089 11.932C47.0313 11.8713 46.8146 11.841 46.5589 11.841H45.1549ZM56.7579 8.4155H59.1694C59.5768 8.4155 59.9256 8.45667 60.2159 8.539C60.5063 8.62133 60.7446 8.734 60.9309 8.877C61.1173 9.01567 61.2538 9.18033 61.3404 9.371C61.4271 9.56167 61.4704 9.76533 61.4704 9.982C61.4704 10.125 61.4509 10.2745 61.4119 10.4305C61.3729 10.5865 61.3036 10.736 61.2039 10.879C61.1086 11.022 60.9764 11.152 60.8074 11.269C60.6428 11.3817 60.4348 11.4705 60.1834 11.5355C60.6818 11.6222 61.0674 11.7977 61.3404 12.062C61.6178 12.322 61.7564 12.6665 61.7564 13.0955C61.7564 13.4162 61.6914 13.6957 61.5614 13.934C61.4358 14.168 61.2603 14.3652 61.0349 14.5255C60.8139 14.6858 60.5539 14.805 60.2549 14.883C59.9559 14.961 59.6353 15 59.2929 15H56.7579V8.4155ZM57.8694 11.997V14.1875H59.2864C59.7198 14.1875 60.0621 14.0878 60.3134 13.8885C60.5648 13.6848 60.6904 13.4075 60.6904 13.0565C60.6904 12.9005 60.6666 12.7597 60.6189 12.634C60.5713 12.504 60.4933 12.3913 60.3849 12.296C60.2766 12.2007 60.1314 12.127 59.9494 12.075C59.7718 12.023 59.5529 11.997 59.2929 11.997H57.8694ZM57.8694 11.2625H59.1369C59.3276 11.2625 59.5031 11.2365 59.6634 11.1845C59.8281 11.1282 59.9689 11.0523 60.0859 10.957C60.2029 10.8573 60.2939 10.7403 60.3589 10.606C60.4239 10.4673 60.4564 10.3157 60.4564 10.151C60.4564 10.0297 60.4348 9.91267 60.3914 9.8C60.3481 9.683 60.2744 9.58117 60.1704 9.4945C60.0664 9.4035 59.9299 9.332 59.7609 9.28C59.5919 9.22367 59.3839 9.1955 59.1369 9.1955H57.8694V11.2625ZM67.2046 8.7405C67.2653 8.64517 67.3455 8.56717 67.4451 8.5065C67.5448 8.44583 67.651 8.4155 67.7636 8.4155H68.6671L66.9576 10.9245C66.8536 11.0848 66.7453 11.217 66.6326 11.321C66.52 11.4207 66.3813 11.4987 66.2166 11.555C66.4246 11.6113 66.6001 11.7002 66.7431 11.8215C66.8861 11.9385 67.014 12.0902 67.1266 12.2765L68.8556 15H68.0496C67.8416 15 67.6813 14.9653 67.5686 14.896C67.456 14.8267 67.3585 14.727 67.2761 14.597L65.9956 12.5495C65.792 12.2115 65.4865 12.0425 65.0791 12.0425H64.3706V15.0065H63.2071V8.4155H64.3706V11.2625H64.9946C65.3413 11.2625 65.6121 11.1152 65.8071 10.8205L67.2046 8.7405ZM72.4573 8.3115C72.9383 8.3115 73.3716 8.39167 73.7573 8.552C74.1429 8.71233 74.4723 8.93983 74.7453 9.2345C75.0183 9.52917 75.2263 9.88667 75.3693 10.307C75.5166 10.723 75.5903 11.1888 75.5903 11.7045C75.5903 12.2245 75.5166 12.6925 75.3693 13.1085C75.2263 13.5245 75.0183 13.8798 74.7453 14.1745C74.4723 14.4692 74.1429 14.6967 73.7573 14.857C73.3716 15.013 72.9383 15.091 72.4573 15.091C71.9719 15.091 71.5343 15.013 71.1443 14.857C70.7586 14.6967 70.4293 14.4692 70.1563 14.1745C69.8833 13.8798 69.6731 13.5245 69.5258 13.1085C69.3828 12.6925 69.3113 12.2245 69.3113 11.7045C69.3113 11.1888 69.3828 10.723 69.5258 10.307C69.6731 9.88667 69.8833 9.52917 70.1563 9.2345C70.4293 8.93983 70.7586 8.71233 71.1443 8.552C71.5343 8.39167 71.9719 8.3115 72.4573 8.3115ZM72.4573 14.1875C73.1073 14.1875 73.5926 13.9708 73.9133 13.5375C74.2339 13.0998 74.3943 12.491 74.3943 11.711C74.3943 10.9267 74.2339 10.3157 73.9133 9.878C73.5926 9.44033 73.1073 9.2215 72.4573 9.2215C72.1279 9.2215 71.8398 9.27783 71.5928 9.3905C71.3501 9.50317 71.1464 9.66567 70.9818 9.878C70.8214 10.0903 70.7001 10.3525 70.6178 10.6645C70.5398 10.9722 70.5008 11.321 70.5008 11.711C70.5008 12.491 70.6611 13.0998 70.9818 13.5375C71.3068 13.9708 71.7986 14.1875 72.4573 14.1875ZM82.5437 8.4155V15H81.3802V11.919H78.2212V15H77.0577V8.4155H78.2212V11.0415H81.3802V8.4155H82.5437ZM83.6419 8.4155H89.8559V9.2995H87.3274V15H86.1704V9.2995H83.6419V8.4155ZM95.0689 15C94.9563 15 94.8696 14.9827 94.8089 14.948C94.7483 14.909 94.7006 14.8353 94.6659 14.727L94.5359 14.1095C94.3626 14.2655 94.1914 14.4063 94.0224 14.532C93.8578 14.6533 93.6844 14.7573 93.5024 14.844C93.3248 14.9263 93.1319 14.9892 92.9239 15.0325C92.7203 15.0802 92.4928 15.104 92.2414 15.104C91.9858 15.104 91.7453 15.0693 91.5199 15C91.2946 14.9263 91.0974 14.818 90.9284 14.675C90.7638 14.532 90.6316 14.3522 90.5319 14.1355C90.4366 13.9145 90.3889 13.6545 90.3889 13.3555C90.3889 13.0955 90.4604 12.8463 90.6034 12.608C90.7464 12.3653 90.9783 12.1508 91.2989 11.9645C91.6196 11.7782 92.0378 11.6265 92.5534 11.5095C93.0691 11.3882 93.7018 11.3188 94.4514 11.3015V10.788C94.4514 10.2767 94.3409 9.891 94.1199 9.631C93.8989 9.36667 93.5761 9.2345 93.1514 9.2345C92.8654 9.2345 92.6249 9.27133 92.4299 9.345C92.2393 9.41433 92.0724 9.4945 91.9294 9.5855C91.7908 9.67217 91.6694 9.75233 91.5654 9.826C91.4658 9.89533 91.3661 9.93 91.2664 9.93C91.1884 9.93 91.1213 9.9105 91.0649 9.8715C91.0086 9.82817 90.9609 9.77617 90.9219 9.7155L90.7139 9.345C91.0779 8.994 91.4701 8.73183 91.8904 8.5585C92.3108 8.38517 92.7766 8.2985 93.2879 8.2985C93.6563 8.2985 93.9834 8.35917 94.2694 8.4805C94.5554 8.60183 94.7959 8.77083 94.9909 8.9875C95.1859 9.20417 95.3333 9.46633 95.4329 9.774C95.5326 10.0817 95.5824 10.4197 95.5824 10.788V15H95.0689ZM92.5859 14.2915C92.7896 14.2915 92.9759 14.272 93.1449 14.233C93.3139 14.1897 93.4721 14.1312 93.6194 14.0575C93.7711 13.9795 93.9141 13.8863 94.0484 13.778C94.1871 13.6653 94.3214 13.5397 94.4514 13.401V12.036C93.9184 12.0533 93.4634 12.0967 93.0864 12.166C92.7138 12.231 92.4083 12.3177 92.1699 12.426C91.9359 12.5343 91.7648 12.6622 91.6564 12.8095C91.5524 12.9568 91.5004 13.1215 91.5004 13.3035C91.5004 13.4768 91.5286 13.6263 91.5849 13.752C91.6413 13.8777 91.7171 13.9817 91.8124 14.064C91.9121 14.142 92.0269 14.2005 92.1569 14.2395C92.2913 14.2742 92.4343 14.2915 92.5859 14.2915ZM101.342 8.7405C101.403 8.64517 101.483 8.56717 101.583 8.5065C101.683 8.44583 101.789 8.4155 101.901 8.4155H102.805L101.095 10.9245C100.991 11.0848 100.883 11.217 100.77 11.321C100.658 11.4207 100.519 11.4987 100.354 11.555C100.562 11.6113 100.738 11.7002 100.881 11.8215C101.024 11.9385 101.152 12.0902 101.264 12.2765L102.993 15H102.187C101.979 15 101.819 14.9653 101.706 14.896C101.594 14.8267 101.496 14.727 101.414 14.597L100.133 12.5495C99.9297 12.2115 99.6242 12.0425 99.2168 12.0425H98.5083V15.0065H97.3448V8.4155H98.5083V11.2625H99.1323C99.479 11.2625 99.7498 11.1152 99.9448 10.8205L101.342 8.7405ZM103.332 8.4155H109.546V9.2995H107.018V15H105.861V9.2995H103.332V8.4155ZM113.08 8.3115C113.475 8.3115 113.839 8.37867 114.172 8.513C114.51 8.643 114.801 8.83367 115.043 9.085C115.29 9.332 115.483 9.63967 115.622 10.008C115.761 10.372 115.83 10.788 115.83 11.256C115.83 11.438 115.81 11.5593 115.771 11.62C115.732 11.6807 115.659 11.711 115.55 11.711H111.15C111.159 12.127 111.215 12.4888 111.319 12.7965C111.423 13.1042 111.566 13.362 111.748 13.57C111.93 13.7737 112.147 13.9275 112.398 14.0315C112.649 14.1312 112.931 14.181 113.243 14.181C113.533 14.181 113.782 14.1485 113.99 14.0835C114.203 14.0142 114.385 13.9405 114.536 13.8625C114.688 13.7845 114.814 13.713 114.913 13.648C115.017 13.5787 115.106 13.544 115.18 13.544C115.275 13.544 115.349 13.5808 115.401 13.6545L115.726 14.077C115.583 14.2503 115.412 14.402 115.212 14.532C115.013 14.6577 114.799 14.7617 114.569 14.844C114.344 14.9263 114.11 14.987 113.867 15.026C113.624 15.0693 113.384 15.091 113.145 15.091C112.69 15.091 112.27 15.0152 111.884 14.8635C111.503 14.7075 111.172 14.4822 110.89 14.1875C110.613 13.8885 110.396 13.5202 110.24 13.0825C110.084 12.6448 110.006 12.1422 110.006 11.5745C110.006 11.1152 110.075 10.6862 110.214 10.2875C110.357 9.88883 110.561 9.54433 110.825 9.254C111.089 8.95933 111.412 8.72967 111.793 8.565C112.175 8.396 112.604 8.3115 113.08 8.3115ZM113.106 9.163C112.547 9.163 112.108 9.3255 111.787 9.6505C111.466 9.97117 111.267 10.4175 111.189 10.9895H114.79C114.79 10.7208 114.751 10.476 114.673 10.255C114.599 10.0297 114.489 9.83683 114.341 9.6765C114.198 9.51183 114.023 9.38617 113.815 9.2995C113.607 9.2085 113.371 9.163 113.106 9.163Z" fill="white"/>
</svg>
