<svg width="102" height="20" viewBox="0 0 102 20" fill="none" xmlns="http://www.w3.org/2000/svg">
<g clip-path="url(#clip0_4_200)">
<path d="M9.34077 0C10.751 0 12.0928 0.323103 13.2969 0.901077C13.4857 0.986269 13.6758 1.08823 13.864 1.19028L13.0384 1.92159L11.8007 0.646297L9.66802 2.51651L8.41214 1.17307L4.49048 4.65889L7.00126 7.39646L6.02108 8.24641L8.49822 10.984L7.51795 11.8336L11.0613 15.7274L13.1585 13.823L14.9826 15.8639C14.6211 16.136 14.2255 16.4086 13.796 16.6462C12.4886 17.3773 10.9747 17.8016 9.35814 17.8016C4.38691 17.8016 0.345546 13.8066 0.345546 8.89314C0.327991 4.01286 4.37007 0 9.34077 0ZM7.68931 8.34864L9.83937 6.44418L11.7662 8.56952L9.61567 10.4738L7.68931 8.34864ZM9.22053 12.0214L11.3531 10.1001L13.2969 12.2253L11.1467 14.1298L9.22053 12.0214ZM6.15942 4.72713L8.30886 2.82267L10.2352 4.948L8.08507 6.85238L6.15942 4.72713ZM10.0974 3.70661L11.6971 2.27842L13.1423 3.85978L11.5426 5.30484L10.0974 3.70661ZM12.9529 10.2528L14.5521 8.82456L15.9972 10.4224L14.3974 11.8516L12.9529 10.2528ZM14.3631 13.4668L15.9629 12.0382L17.4068 13.6195L15.8076 15.0644L14.3631 13.4668ZM15.0168 6.12107L16.0831 5.16879L17.0459 6.22339L15.9799 7.17531L15.0168 6.12107ZM13.6408 2.97548L14.7071 2.00651L15.6707 3.07753L14.6036 4.02972L13.6408 2.97548ZM16.3755 9.26693L17.4417 8.31474L18.422 9.36899L17.3389 10.3209L16.3755 9.26693ZM11.5768 6.90341L13.1766 5.47513L14.6211 7.05614L13.022 8.48469L11.5768 6.90341Z" fill="#3E9CDC"/>
</g>
<path d="M30.7015 5.6855H31.748C31.8607 5.6855 31.9538 5.71367 32.0275 5.77C32.1055 5.82633 32.1553 5.89783 32.177 5.9845L34.101 12.4585C34.1313 12.5755 34.1595 12.7012 34.1855 12.8355C34.2158 12.9698 34.244 13.1107 34.27 13.258C34.3003 13.1107 34.3307 12.9698 34.361 12.8355C34.3957 12.6968 34.4325 12.5712 34.4715 12.4585L36.662 5.9845C36.688 5.91083 36.7378 5.84367 36.8115 5.783C36.8895 5.718 36.9827 5.6855 37.091 5.6855H37.455C37.5677 5.6855 37.6587 5.71367 37.728 5.77C37.7973 5.82633 37.8493 5.89783 37.884 5.9845L40.068 12.4585C40.107 12.5712 40.1417 12.6925 40.172 12.8225C40.2067 12.9525 40.237 13.0868 40.263 13.2255C40.289 13.0868 40.315 12.9525 40.341 12.8225C40.367 12.6925 40.3952 12.5712 40.4255 12.4585L42.356 5.9845C42.3777 5.9065 42.4253 5.83717 42.499 5.7765C42.577 5.71583 42.6702 5.6855 42.7785 5.6855H43.76L40.8545 15H39.7235L37.364 7.8955C37.3163 7.76117 37.273 7.60517 37.234 7.4275C37.2123 7.51417 37.1907 7.59867 37.169 7.681C37.1517 7.759 37.1322 7.8305 37.1105 7.8955L34.738 15H33.607L30.7015 5.6855ZM46.8347 8.3115C47.229 8.3115 47.593 8.37867 47.9267 8.513C48.2647 8.643 48.555 8.83367 48.7977 9.085C49.0447 9.332 49.2375 9.63967 49.3762 10.008C49.5149 10.372 49.5842 10.788 49.5842 11.256C49.5842 11.438 49.5647 11.5593 49.5257 11.62C49.4867 11.6807 49.413 11.711 49.3047 11.711H44.9042C44.9129 12.127 44.9692 12.4888 45.0732 12.7965C45.1772 13.1042 45.3202 13.362 45.5022 13.57C45.6842 13.7737 45.9009 13.9275 46.1522 14.0315C46.4035 14.1312 46.6852 14.181 46.9972 14.181C47.2875 14.181 47.5367 14.1485 47.7447 14.0835C47.957 14.0142 48.139 13.9405 48.2907 13.8625C48.4424 13.7845 48.568 13.713 48.6677 13.648C48.7717 13.5787 48.8605 13.544 48.9342 13.544C49.0295 13.544 49.1032 13.5808 49.1552 13.6545L49.4802 14.077C49.3372 14.2503 49.166 14.402 48.9667 14.532C48.7674 14.6577 48.5529 14.7617 48.3232 14.844C48.0979 14.9263 47.8639 14.987 47.6212 15.026C47.3785 15.0693 47.138 15.091 46.8997 15.091C46.4447 15.091 46.0244 15.0152 45.6387 14.8635C45.2574 14.7075 44.9259 14.4822 44.6442 14.1875C44.3669 13.8885 44.1502 13.5202 43.9942 13.0825C43.8382 12.6448 43.7602 12.1422 43.7602 11.5745C43.7602 11.1152 43.8295 10.6862 43.9682 10.2875C44.1112 9.88883 44.3149 9.54433 44.5792 9.254C44.8435 8.95933 45.1664 8.72967 45.5477 8.565C45.929 8.396 46.358 8.3115 46.8347 8.3115ZM46.8607 9.163C46.3017 9.163 45.8619 9.3255 45.5412 9.6505C45.2205 9.97117 45.0212 10.4175 44.9432 10.9895H48.5442C48.5442 10.7208 48.5052 10.476 48.4272 10.255C48.3535 10.0297 48.243 9.83683 48.0957 9.6765C47.9527 9.51183 47.7772 9.38617 47.5692 9.2995C47.3612 9.2085 47.125 9.163 46.8607 9.163ZM51.0054 15V5.4255H52.1689V9.371C52.4419 9.046 52.7539 8.78817 53.1049 8.5975C53.4559 8.40683 53.8589 8.3115 54.3139 8.3115C54.6995 8.3115 55.0462 8.38517 55.3539 8.5325C55.6659 8.67983 55.9302 8.89433 56.1469 9.176C56.3635 9.45333 56.5282 9.79133 56.6409 10.19C56.7579 10.5887 56.8164 11.0372 56.8164 11.5355C56.8164 12.0685 56.7514 12.5538 56.6214 12.9915C56.4914 13.4292 56.3029 13.804 56.0559 14.116C55.8132 14.4237 55.5164 14.6642 55.1654 14.8375C54.8144 15.0065 54.42 15.091 53.9824 15.091C53.549 15.091 53.1829 15.0108 52.8839 14.8505C52.5892 14.6858 52.3314 14.454 52.1104 14.155L52.0519 14.753C52.0172 14.9177 51.9175 15 51.7529 15H51.0054ZM53.9304 9.2345C53.5534 9.2345 53.224 9.32117 52.9424 9.4945C52.6607 9.66783 52.4029 9.91267 52.1689 10.229V13.414C52.3812 13.7 52.613 13.9015 52.8644 14.0185C53.12 14.1355 53.3995 14.194 53.7029 14.194C54.3225 14.194 54.797 13.9752 55.1264 13.5375C55.4557 13.0998 55.6204 12.4477 55.6204 11.581C55.6204 10.775 55.473 10.1835 55.1784 9.8065C54.888 9.42517 54.472 9.2345 53.9304 9.2345ZM66.4615 11.633C66.5135 11.737 66.5633 11.8475 66.611 11.9645C66.6586 12.0772 66.7063 12.1898 66.754 12.3025C66.7973 12.1855 66.8428 12.0707 66.8905 11.958C66.9381 11.841 66.9901 11.7305 67.0465 11.6265L70.2055 5.9C70.2575 5.80033 70.3138 5.73967 70.3745 5.718C70.4395 5.69633 70.5283 5.6855 70.641 5.6855H71.5705V15H70.4655V8.1555C70.4655 8.0645 70.4676 7.967 70.472 7.863C70.4763 7.759 70.4828 7.65283 70.4915 7.5445L67.3 13.3685C67.2003 13.5635 67.0486 13.661 66.845 13.661H66.663C66.4593 13.661 66.3076 13.5635 66.208 13.3685L62.945 7.525C62.958 7.63767 62.9666 7.74817 62.971 7.8565C62.9796 7.96483 62.984 8.0645 62.984 8.1555V15H61.879V5.6855H62.8085C62.9211 5.6855 63.0078 5.69633 63.0685 5.718C63.1291 5.73967 63.1876 5.80033 63.244 5.9L66.4615 11.633ZM76.2516 8.3115C76.7326 8.3115 77.1659 8.39167 77.5516 8.552C77.9372 8.71233 78.2666 8.93983 78.5396 9.2345C78.8126 9.52917 79.0206 9.88667 79.1636 10.307C79.3109 10.723 79.3846 11.1888 79.3846 11.7045C79.3846 12.2245 79.3109 12.6925 79.1636 13.1085C79.0206 13.5245 78.8126 13.8798 78.5396 14.1745C78.2666 14.4692 77.9372 14.6967 77.5516 14.857C77.1659 15.013 76.7326 15.091 76.2516 15.091C75.7662 15.091 75.3286 15.013 74.9386 14.857C74.5529 14.6967 74.2236 14.4692 73.9506 14.1745C73.6776 13.8798 73.4674 13.5245 73.3201 13.1085C73.1771 12.6925 73.1056 12.2245 73.1056 11.7045C73.1056 11.1888 73.1771 10.723 73.3201 10.307C73.4674 9.88667 73.6776 9.52917 73.9506 9.2345C74.2236 8.93983 74.5529 8.71233 74.9386 8.552C75.3286 8.39167 75.7662 8.3115 76.2516 8.3115ZM76.2516 14.1875C76.9016 14.1875 77.3869 13.9708 77.7076 13.5375C78.0282 13.0998 78.1886 12.491 78.1886 11.711C78.1886 10.9267 78.0282 10.3157 77.7076 9.878C77.3869 9.44033 76.9016 9.2215 76.2516 9.2215C75.9222 9.2215 75.6341 9.27783 75.3871 9.3905C75.1444 9.50317 74.9407 9.66567 74.7761 9.878C74.6157 10.0903 74.4944 10.3525 74.4121 10.6645C74.3341 10.9722 74.2951 11.321 74.2951 11.711C74.2951 12.491 74.4554 13.0998 74.7761 13.5375C75.1011 13.9708 75.5929 14.1875 76.2516 14.1875ZM80.852 15V8.4155H81.5475C81.7122 8.4155 81.814 8.49567 81.853 8.656L81.944 9.371C82.23 9.05467 82.5507 8.799 82.906 8.604C83.2614 8.409 83.6709 8.3115 84.1345 8.3115C84.4942 8.3115 84.8105 8.37217 85.0835 8.4935C85.3609 8.6105 85.5905 8.7795 85.7725 9.0005C85.9589 9.21717 86.0997 9.47933 86.195 9.787C86.2904 10.0947 86.338 10.4348 86.338 10.8075V15H85.1745V10.8075C85.1745 10.3092 85.0597 9.9235 84.83 9.6505C84.6047 9.37317 84.2602 9.2345 83.7965 9.2345C83.4499 9.2345 83.127 9.31683 82.828 9.4815C82.5334 9.64617 82.2625 9.86933 82.0155 10.151V15H80.852ZM90.7986 8.3115C91.1929 8.3115 91.5569 8.37867 91.8906 8.513C92.2286 8.643 92.5189 8.83367 92.7616 9.085C93.0086 9.332 93.2014 9.63967 93.3401 10.008C93.4787 10.372 93.5481 10.788 93.5481 11.256C93.5481 11.438 93.5286 11.5593 93.4896 11.62C93.4506 11.6807 93.3769 11.711 93.2686 11.711H88.8681C88.8767 12.127 88.9331 12.4888 89.0371 12.7965C89.1411 13.1042 89.2841 13.362 89.4661 13.57C89.6481 13.7737 89.8647 13.9275 90.1161 14.0315C90.3674 14.1312 90.6491 14.181 90.9611 14.181C91.2514 14.181 91.5006 14.1485 91.7086 14.0835C91.9209 14.0142 92.1029 13.9405 92.2546 13.8625C92.4062 13.7845 92.5319 13.713 92.6316 13.648C92.7356 13.5787 92.8244 13.544 92.8981 13.544C92.9934 13.544 93.0671 13.5808 93.1191 13.6545L93.4441 14.077C93.3011 14.2503 93.1299 14.402 92.9306 14.532C92.7312 14.6577 92.5167 14.7617 92.2871 14.844C92.0617 14.9263 91.8277 14.987 91.5851 15.026C91.3424 15.0693 91.1019 15.091 90.8636 15.091C90.4086 15.091 89.9882 15.0152 89.6026 14.8635C89.2212 14.7075 88.8897 14.4822 88.6081 14.1875C88.3307 13.8885 88.1141 13.5202 87.9581 13.0825C87.8021 12.6448 87.7241 12.1422 87.7241 11.5745C87.7241 11.1152 87.7934 10.6862 87.9321 10.2875C88.0751 9.88883 88.2787 9.54433 88.5431 9.254C88.8074 8.95933 89.1302 8.72967 89.5116 8.565C89.8929 8.396 90.3219 8.3115 90.7986 8.3115ZM90.8246 9.163C90.2656 9.163 89.8257 9.3255 89.5051 9.6505C89.1844 9.97117 88.9851 10.4175 88.9071 10.9895H92.5081C92.5081 10.7208 92.4691 10.476 92.3911 10.255C92.3174 10.0297 92.2069 9.83683 92.0596 9.6765C91.9166 9.51183 91.7411 9.38617 91.5331 9.2995C91.3251 9.2085 91.0889 9.163 90.8246 9.163ZM96.8127 16.9435C96.7737 17.0302 96.7239 17.0995 96.6632 17.1515C96.6069 17.2035 96.518 17.2295 96.3967 17.2295H95.5387L96.7412 14.6165L94.0242 8.4155H95.0252C95.1249 8.4155 95.2029 8.4415 95.2592 8.4935C95.3199 8.54117 95.361 8.59533 95.3827 8.656L97.1442 12.803C97.1789 12.9027 97.2114 13.0002 97.2417 13.0955C97.272 13.1865 97.298 13.2818 97.3197 13.3815C97.376 13.1865 97.441 12.9915 97.5147 12.7965L99.2242 8.656C99.2502 8.58667 99.2935 8.53033 99.3542 8.487C99.4192 8.43933 99.4907 8.4155 99.5687 8.4155H100.485L96.8127 16.9435Z" fill="#C3C3C3"/>
<defs>
<clipPath id="clip0_4_200">
<rect width="20" height="20" fill="white" transform="translate(0.5)"/>
</clipPath>
</defs>
</svg>
