<svg width="116" height="20" viewBox="0 0 116 20" fill="none" xmlns="http://www.w3.org/2000/svg">
<path fill-rule="evenodd" clip-rule="evenodd" d="M3.77983 9.9307C3.77983 8.94664 3.86303 8.32213 5.91811 6.80087C7.61949 5.54138 13.073 1.23743 13.073 1.23743V8.42209H17.2203V18.7627H5.07518C4.36275 18.7627 3.77963 18.1844 3.77963 17.4778L3.77983 9.93076V9.9307Z" fill="#3E9CDC"/>
<path fill-rule="evenodd" clip-rule="evenodd" d="M13.073 8.422V12.585L5.45212 17.7335L15.0874 14.6246V8.422H13.073Z" fill="black" fill-opacity="0.2"/>
<path fill-rule="evenodd" clip-rule="evenodd" d="M9.5904 8.20685C10.0361 7.68023 10.687 7.49436 11.0443 7.79173C11.4017 8.08915 11.3303 8.75719 10.8846 9.2838C10.4392 9.81035 9.78811 9.99602 9.43072 9.69859C9.07333 9.40123 9.14497 8.73333 9.5904 8.20678V8.20685Z" fill="#231F20"/>
<path d="M35.1864 11.2885V15H33.9254V11.2885L30.5129 5.6855H31.6179C31.7306 5.6855 31.8194 5.71367 31.8844 5.77C31.9494 5.822 32.0058 5.89133 32.0534 5.978L34.1854 9.5985C34.2634 9.75017 34.3328 9.89317 34.3934 10.0275C34.4584 10.1575 34.5148 10.2875 34.5624 10.4175C34.6101 10.2875 34.6643 10.1575 34.7249 10.0275C34.7856 9.89317 34.8549 9.75017 34.9329 9.5985L37.0584 5.978C37.0974 5.90433 37.1516 5.83717 37.2209 5.7765C37.2903 5.71583 37.3791 5.6855 37.4874 5.6855H38.5989L35.1864 11.2885ZM42.2675 15C42.1548 15 42.0681 14.9827 42.0075 14.948C41.9468 14.909 41.8991 14.8353 41.8645 14.727L41.7345 14.1095C41.5611 14.2655 41.39 14.4063 41.221 14.532C41.0563 14.6533 40.883 14.7573 40.701 14.844C40.5233 14.9263 40.3305 14.9892 40.1225 15.0325C39.9188 15.0802 39.6913 15.104 39.44 15.104C39.1843 15.104 38.9438 15.0693 38.7185 15C38.4931 14.9263 38.296 14.818 38.127 14.675C37.9623 14.532 37.8301 14.3522 37.7305 14.1355C37.6351 13.9145 37.5875 13.6545 37.5875 13.3555C37.5875 13.0955 37.659 12.8463 37.802 12.608C37.945 12.3653 38.1768 12.1508 38.4975 11.9645C38.8181 11.7782 39.2363 11.6265 39.752 11.5095C40.2676 11.3882 40.9003 11.3188 41.65 11.3015V10.788C41.65 10.2767 41.5395 9.891 41.3185 9.631C41.0975 9.36667 40.7746 9.2345 40.35 9.2345C40.064 9.2345 39.8235 9.27133 39.6285 9.345C39.4378 9.41433 39.271 9.4945 39.128 9.5855C38.9893 9.67217 38.868 9.75233 38.764 9.826C38.6643 9.89533 38.5646 9.93 38.465 9.93C38.387 9.93 38.3198 9.9105 38.2635 9.8715C38.2071 9.82817 38.1595 9.77617 38.1205 9.7155L37.9125 9.345C38.2765 8.994 38.6686 8.73183 39.089 8.5585C39.5093 8.38517 39.9751 8.2985 40.4865 8.2985C40.8548 8.2985 41.182 8.35917 41.468 8.4805C41.754 8.60183 41.9945 8.77083 42.1895 8.9875C42.3845 9.20417 42.5318 9.46633 42.6315 9.774C42.7311 10.0817 42.781 10.4197 42.781 10.788V15H42.2675ZM39.7845 14.2915C39.9881 14.2915 40.1745 14.272 40.3435 14.233C40.5125 14.1897 40.6706 14.1312 40.818 14.0575C40.9696 13.9795 41.1126 13.8863 41.247 13.778C41.3856 13.6653 41.52 13.5397 41.65 13.401V12.036C41.117 12.0533 40.662 12.0967 40.285 12.166C39.9123 12.231 39.6068 12.3177 39.3685 12.426C39.1345 12.5343 38.9633 12.6622 38.855 12.8095C38.751 12.9568 38.699 13.1215 38.699 13.3035C38.699 13.4768 38.7271 13.6263 38.7835 13.752C38.8398 13.8777 38.9156 13.9817 39.011 14.064C39.1106 14.142 39.2255 14.2005 39.3555 14.2395C39.4898 14.2742 39.6328 14.2915 39.7845 14.2915ZM44.5434 15V8.4155H45.2389C45.4036 8.4155 45.5054 8.49567 45.5444 8.656L45.6354 9.371C45.9214 9.05467 46.2421 8.799 46.5974 8.604C46.9527 8.409 47.3622 8.3115 47.8259 8.3115C48.1856 8.3115 48.5019 8.37217 48.7749 8.4935C49.0522 8.6105 49.2819 8.7795 49.4639 9.0005C49.6502 9.21717 49.7911 9.47933 49.8864 9.787C49.9817 10.0947 50.0294 10.4348 50.0294 10.8075V15H48.8659V10.8075C48.8659 10.3092 48.7511 9.9235 48.5214 9.6505C48.2961 9.37317 47.9516 9.2345 47.4879 9.2345C47.1412 9.2345 46.8184 9.31683 46.5194 9.4815C46.2247 9.64617 45.9539 9.86933 45.7069 10.151V15H44.5434ZM56.5504 15C56.3857 15 56.2817 14.9198 56.2384 14.7595L56.1344 13.96C55.8527 14.3023 55.5299 14.5775 55.1659 14.7855C54.8062 14.9892 54.3924 15.091 53.9244 15.091C53.5474 15.091 53.2051 15.0195 52.8974 14.8765C52.5897 14.7292 52.3276 14.5147 52.1109 14.233C51.8942 13.9513 51.7274 13.6003 51.6104 13.18C51.4934 12.7597 51.4349 12.2765 51.4349 11.7305C51.4349 11.2452 51.4999 10.7945 51.6299 10.3785C51.7599 9.95817 51.9462 9.59417 52.1889 9.2865C52.4316 8.97883 52.7284 8.73833 53.0794 8.565C53.4347 8.38733 53.8334 8.2985 54.2754 8.2985C54.6784 8.2985 55.0229 8.36783 55.3089 8.5065C55.5992 8.64083 55.8571 8.8315 56.0824 9.0785V5.4255H57.2394V15H56.5504ZM54.3014 14.155C54.6827 14.155 55.0142 14.0683 55.2959 13.895C55.5819 13.7217 55.8441 13.4768 56.0824 13.1605V9.982C55.8657 9.696 55.6317 9.4945 55.3804 9.3775C55.1291 9.2605 54.8474 9.202 54.5354 9.202C53.9244 9.202 53.4542 9.42083 53.1249 9.8585C52.7956 10.2962 52.6309 10.9202 52.6309 11.7305C52.6309 12.1595 52.6677 12.5278 52.7414 12.8355C52.8151 13.1388 52.9234 13.3902 53.0664 13.5895C53.2094 13.7845 53.3849 13.9275 53.5929 14.0185C53.8009 14.1095 54.0371 14.155 54.3014 14.155ZM61.7643 8.3115C62.1587 8.3115 62.5227 8.37867 62.8563 8.513C63.1943 8.643 63.4847 8.83367 63.7273 9.085C63.9743 9.332 64.1672 9.63967 64.3058 10.008C64.4445 10.372 64.5138 10.788 64.5138 11.256C64.5138 11.438 64.4943 11.5593 64.4553 11.62C64.4163 11.6807 64.3427 11.711 64.2343 11.711H59.8338C59.8425 12.127 59.8988 12.4888 60.0028 12.7965C60.1068 13.1042 60.2498 13.362 60.4318 13.57C60.6138 13.7737 60.8305 13.9275 61.0818 14.0315C61.3332 14.1312 61.6148 14.181 61.9268 14.181C62.2172 14.181 62.4663 14.1485 62.6743 14.0835C62.8867 14.0142 63.0687 13.9405 63.2203 13.8625C63.372 13.7845 63.4977 13.713 63.5973 13.648C63.7013 13.5787 63.7902 13.544 63.8638 13.544C63.9592 13.544 64.0328 13.5808 64.0848 13.6545L64.4098 14.077C64.2668 14.2503 64.0957 14.402 63.8963 14.532C63.697 14.6577 63.4825 14.7617 63.2528 14.844C63.0275 14.9263 62.7935 14.987 62.5508 15.026C62.3082 15.0693 62.0677 15.091 61.8293 15.091C61.3743 15.091 60.954 15.0152 60.5683 14.8635C60.187 14.7075 59.8555 14.4822 59.5738 14.1875C59.2965 13.8885 59.0798 13.5202 58.9238 13.0825C58.7678 12.6448 58.6898 12.1422 58.6898 11.5745C58.6898 11.1152 58.7592 10.6862 58.8978 10.2875C59.0408 9.88883 59.2445 9.54433 59.5088 9.254C59.7732 8.95933 60.096 8.72967 60.4773 8.565C60.8587 8.396 61.2877 8.3115 61.7643 8.3115ZM61.7903 9.163C61.2313 9.163 60.7915 9.3255 60.4708 9.6505C60.1502 9.97117 59.9508 10.4175 59.8728 10.9895H63.4738C63.4738 10.7208 63.4348 10.476 63.3568 10.255C63.2832 10.0297 63.1727 9.83683 63.0253 9.6765C62.8823 9.51183 62.7068 9.38617 62.4988 9.2995C62.2908 9.2085 62.0547 9.163 61.7903 9.163ZM67.3866 11.6265L65.1701 8.4155H66.2816C66.377 8.4155 66.4463 8.43067 66.4896 8.461C66.533 8.49133 66.572 8.53467 66.6066 8.591L68.2186 11.061C68.2576 10.9397 68.314 10.8183 68.3876 10.697L69.8046 8.617C69.8436 8.55633 69.8848 8.50867 69.9281 8.474C69.9758 8.435 70.0321 8.4155 70.0971 8.4155H71.1631L68.9466 11.5615L71.2541 15H70.1426C70.0473 15 69.9715 14.9762 69.9151 14.9285C69.8631 14.8765 69.8198 14.8202 69.7851 14.7595L68.1276 12.179C68.0973 12.3047 68.0518 12.4173 67.9911 12.517L66.4571 14.7595C66.4138 14.8202 66.3661 14.8765 66.3141 14.9285C66.2665 14.9762 66.1993 15 66.1126 15H65.0791L67.3866 11.6265ZM80.5024 11.633C80.5544 11.737 80.6042 11.8475 80.6519 11.9645C80.6996 12.0772 80.7472 12.1898 80.7949 12.3025C80.8382 12.1855 80.8837 12.0707 80.9314 11.958C80.9791 11.841 81.0311 11.7305 81.0874 11.6265L84.2464 5.9C84.2984 5.80033 84.3547 5.73967 84.4154 5.718C84.4804 5.69633 84.5692 5.6855 84.6819 5.6855H85.6114V15H84.5064V8.1555C84.5064 8.0645 84.5086 7.967 84.5129 7.863C84.5172 7.759 84.5237 7.65283 84.5324 7.5445L81.3409 13.3685C81.2412 13.5635 81.0896 13.661 80.8859 13.661H80.7039C80.5002 13.661 80.3486 13.5635 80.2489 13.3685L76.9859 7.525C76.9989 7.63767 77.0076 7.74817 77.0119 7.8565C77.0206 7.96483 77.0249 8.0645 77.0249 8.1555V15H75.9199V5.6855H76.8494C76.9621 5.6855 77.0487 5.69633 77.1094 5.718C77.1701 5.73967 77.2286 5.80033 77.2849 5.9L80.5024 11.633ZM90.2925 8.3115C90.7735 8.3115 91.2069 8.39167 91.5925 8.552C91.9782 8.71233 92.3075 8.93983 92.5805 9.2345C92.8535 9.52917 93.0615 9.88667 93.2045 10.307C93.3519 10.723 93.4255 11.1888 93.4255 11.7045C93.4255 12.2245 93.3519 12.6925 93.2045 13.1085C93.0615 13.5245 92.8535 13.8798 92.5805 14.1745C92.3075 14.4692 91.9782 14.6967 91.5925 14.857C91.2069 15.013 90.7735 15.091 90.2925 15.091C89.8072 15.091 89.3695 15.013 88.9795 14.857C88.5939 14.6967 88.2645 14.4692 87.9915 14.1745C87.7185 13.8798 87.5084 13.5245 87.361 13.1085C87.218 12.6925 87.1465 12.2245 87.1465 11.7045C87.1465 11.1888 87.218 10.723 87.361 10.307C87.5084 9.88667 87.7185 9.52917 87.9915 9.2345C88.2645 8.93983 88.5939 8.71233 88.9795 8.552C89.3695 8.39167 89.8072 8.3115 90.2925 8.3115ZM90.2925 14.1875C90.9425 14.1875 91.4279 13.9708 91.7485 13.5375C92.0692 13.0998 92.2295 12.491 92.2295 11.711C92.2295 10.9267 92.0692 10.3157 91.7485 9.878C91.4279 9.44033 90.9425 9.2215 90.2925 9.2215C89.9632 9.2215 89.675 9.27783 89.428 9.3905C89.1854 9.50317 88.9817 9.66567 88.817 9.878C88.6567 10.0903 88.5354 10.3525 88.453 10.6645C88.375 10.9722 88.336 11.321 88.336 11.711C88.336 12.491 88.4964 13.0998 88.817 13.5375C89.142 13.9708 89.6339 14.1875 90.2925 14.1875ZM94.893 15V8.4155H95.5885C95.7532 8.4155 95.855 8.49567 95.894 8.656L95.985 9.371C96.271 9.05467 96.5917 8.799 96.947 8.604C97.3023 8.409 97.7118 8.3115 98.1755 8.3115C98.5352 8.3115 98.8515 8.37217 99.1245 8.4935C99.4018 8.6105 99.6315 8.7795 99.8135 9.0005C99.9998 9.21717 100.141 9.47933 100.236 9.787C100.331 10.0947 100.379 10.4348 100.379 10.8075V15H99.2155V10.8075C99.2155 10.3092 99.1007 9.9235 98.871 9.6505C98.6457 9.37317 98.3012 9.2345 97.8375 9.2345C97.4908 9.2345 97.168 9.31683 96.869 9.4815C96.5743 9.64617 96.3035 9.86933 96.0565 10.151V15H94.893ZM104.84 8.3115C105.234 8.3115 105.598 8.37867 105.932 8.513C106.27 8.643 106.56 8.83367 106.803 9.085C107.05 9.332 107.242 9.63967 107.381 10.008C107.52 10.372 107.589 10.788 107.589 11.256C107.589 11.438 107.57 11.5593 107.531 11.62C107.492 11.6807 107.418 11.711 107.31 11.711H102.909C102.918 12.127 102.974 12.4888 103.078 12.7965C103.182 13.1042 103.325 13.362 103.507 13.57C103.689 13.7737 103.906 13.9275 104.157 14.0315C104.408 14.1312 104.69 14.181 105.002 14.181C105.292 14.181 105.542 14.1485 105.75 14.0835C105.962 14.0142 106.144 13.9405 106.296 13.8625C106.447 13.7845 106.573 13.713 106.673 13.648C106.777 13.5787 106.865 13.544 106.939 13.544C107.034 13.544 107.108 13.5808 107.16 13.6545L107.485 14.077C107.342 14.2503 107.171 14.402 106.972 14.532C106.772 14.6577 106.558 14.7617 106.328 14.844C106.103 14.9263 105.869 14.987 105.626 15.026C105.383 15.0693 105.143 15.091 104.905 15.091C104.45 15.091 104.029 15.0152 103.644 14.8635C103.262 14.7075 102.931 14.4822 102.649 14.1875C102.372 13.8885 102.155 13.5202 101.999 13.0825C101.843 12.6448 101.765 12.1422 101.765 11.5745C101.765 11.1152 101.834 10.6862 101.973 10.2875C102.116 9.88883 102.32 9.54433 102.584 9.254C102.848 8.95933 103.171 8.72967 103.553 8.565C103.934 8.396 104.363 8.3115 104.84 8.3115ZM104.866 9.163C104.307 9.163 103.867 9.3255 103.546 9.6505C103.225 9.97117 103.026 10.4175 102.948 10.9895H106.549C106.549 10.7208 106.51 10.476 106.432 10.255C106.358 10.0297 106.248 9.83683 106.101 9.6765C105.958 9.51183 105.782 9.38617 105.574 9.2995C105.366 9.2085 105.13 9.163 104.866 9.163ZM110.854 16.9435C110.815 17.0302 110.765 17.0995 110.704 17.1515C110.648 17.2035 110.559 17.2295 110.438 17.2295H109.58L110.782 14.6165L108.065 8.4155H109.066C109.166 8.4155 109.244 8.4415 109.3 8.4935C109.361 8.54117 109.402 8.59533 109.424 8.656L111.185 12.803C111.22 12.9027 111.252 13.0002 111.283 13.0955C111.313 13.1865 111.339 13.2818 111.361 13.3815C111.417 13.1865 111.482 12.9915 111.556 12.7965L113.265 8.656C113.291 8.58667 113.334 8.53033 113.395 8.487C113.46 8.43933 113.532 8.4155 113.61 8.4155H114.526L110.854 16.9435Z" fill="#C3C3C3"/>
</svg>
